<mxfile host="app.diagrams.net" modified="2022-01-09T12:50:40.673Z" agent="5.0 (Windows NT 10.0; Win64; x64) AppleWebKit/537.36 (KHTML, like Gecko) Chrome/96.0.4664.110 Safari/537.36" etag="M6tbcwyRdPmkbbXjWyNZ" version="16.1.2" type="github">
  <diagram id="hyGyV8I_Jc6BrLd6JG3v" name="Page-1">
    <mxGraphModel dx="1422" dy="705" grid="1" gridSize="10" guides="1" tooltips="1" connect="1" arrows="1" fold="1" page="1" pageScale="1" pageWidth="827" pageHeight="1169" math="0" shadow="0">
      <root>
        <mxCell id="0" />
        <mxCell id="1" parent="0" />
        <mxCell id="yuPRgM2eAbtoOdmmoAb1-1" value="" style="rounded=0;whiteSpace=wrap;html=1;" vertex="1" parent="1">
          <mxGeometry x="250" y="140" width="260" height="320" as="geometry" />
        </mxCell>
        <mxCell id="yuPRgM2eAbtoOdmmoAb1-14" value="" style="rounded=0;whiteSpace=wrap;html=1;" vertex="1" parent="1">
          <mxGeometry x="265" y="310" width="230" height="130" as="geometry" />
        </mxCell>
        <mxCell id="yuPRgM2eAbtoOdmmoAb1-2" value="User Applications" style="rounded=0;whiteSpace=wrap;html=1;" vertex="1" parent="1">
          <mxGeometry x="297" y="160" width="166" height="40" as="geometry" />
        </mxCell>
        <mxCell id="yuPRgM2eAbtoOdmmoAb1-3" value="GLIBC" style="rounded=0;whiteSpace=wrap;html=1;" vertex="1" parent="1">
          <mxGeometry x="360" y="220" width="100" height="40" as="geometry" />
        </mxCell>
        <mxCell id="yuPRgM2eAbtoOdmmoAb1-4" value="" style="endArrow=none;dashed=1;html=1;rounded=0;" edge="1" parent="1">
          <mxGeometry width="50" height="50" relative="1" as="geometry">
            <mxPoint x="210" y="280" as="sourcePoint" />
            <mxPoint x="550" y="280" as="targetPoint" />
          </mxGeometry>
        </mxCell>
        <mxCell id="yuPRgM2eAbtoOdmmoAb1-5" value="" style="endArrow=none;html=1;rounded=0;exitX=0.5;exitY=0;exitDx=0;exitDy=0;" edge="1" parent="1" source="yuPRgM2eAbtoOdmmoAb1-3">
          <mxGeometry width="50" height="50" relative="1" as="geometry">
            <mxPoint x="364" y="250" as="sourcePoint" />
            <mxPoint x="410" y="200" as="targetPoint" />
          </mxGeometry>
        </mxCell>
        <mxCell id="yuPRgM2eAbtoOdmmoAb1-6" value="System Calls" style="rounded=0;whiteSpace=wrap;html=1;" vertex="1" parent="1">
          <mxGeometry x="300" y="320" width="161.5" height="20" as="geometry" />
        </mxCell>
        <mxCell id="yuPRgM2eAbtoOdmmoAb1-7" value="Kernel" style="rounded=0;whiteSpace=wrap;html=1;" vertex="1" parent="1">
          <mxGeometry x="300" y="350" width="160" height="40" as="geometry" />
        </mxCell>
        <mxCell id="yuPRgM2eAbtoOdmmoAb1-8" value="Architecture-Dependent Kernel Code" style="rounded=0;whiteSpace=wrap;html=1;" vertex="1" parent="1">
          <mxGeometry x="300" y="400" width="160" height="30" as="geometry" />
        </mxCell>
        <mxCell id="yuPRgM2eAbtoOdmmoAb1-12" value="" style="endArrow=none;html=1;rounded=0;" edge="1" parent="1" source="yuPRgM2eAbtoOdmmoAb1-7">
          <mxGeometry width="50" height="50" relative="1" as="geometry">
            <mxPoint x="380" y="329.28932188134524" as="sourcePoint" />
            <mxPoint x="380" y="350" as="targetPoint" />
            <Array as="points">
              <mxPoint x="380" y="340" />
            </Array>
          </mxGeometry>
        </mxCell>
        <mxCell id="yuPRgM2eAbtoOdmmoAb1-13" value="" style="endArrow=none;html=1;rounded=0;entryX=0.5;entryY=1;entryDx=0;entryDy=0;exitX=0.5;exitY=0;exitDx=0;exitDy=0;" edge="1" parent="1" source="yuPRgM2eAbtoOdmmoAb1-8" target="yuPRgM2eAbtoOdmmoAb1-7">
          <mxGeometry width="50" height="50" relative="1" as="geometry">
            <mxPoint x="580" y="480" as="sourcePoint" />
            <mxPoint x="630" y="430" as="targetPoint" />
          </mxGeometry>
        </mxCell>
        <mxCell id="yuPRgM2eAbtoOdmmoAb1-15" value="" style="endArrow=none;html=1;rounded=0;entryX=0.25;entryY=1;entryDx=0;entryDy=0;" edge="1" parent="1" target="yuPRgM2eAbtoOdmmoAb1-2">
          <mxGeometry width="50" height="50" relative="1" as="geometry">
            <mxPoint x="339" y="320" as="sourcePoint" />
            <mxPoint x="440" y="330" as="targetPoint" />
          </mxGeometry>
        </mxCell>
        <mxCell id="yuPRgM2eAbtoOdmmoAb1-16" value="" style="endArrow=none;html=1;rounded=0;entryX=0.5;entryY=1;entryDx=0;entryDy=0;exitX=0.681;exitY=0;exitDx=0;exitDy=0;exitPerimeter=0;" edge="1" parent="1" source="yuPRgM2eAbtoOdmmoAb1-6" target="yuPRgM2eAbtoOdmmoAb1-3">
          <mxGeometry width="50" height="50" relative="1" as="geometry">
            <mxPoint x="510" y="350" as="sourcePoint" />
            <mxPoint x="560" y="300" as="targetPoint" />
          </mxGeometry>
        </mxCell>
        <mxCell id="yuPRgM2eAbtoOdmmoAb1-17" value="" style="shape=curlyBracket;whiteSpace=wrap;html=1;rounded=1;" vertex="1" parent="1">
          <mxGeometry x="150" y="140" width="30" height="320" as="geometry" />
        </mxCell>
        <mxCell id="yuPRgM2eAbtoOdmmoAb1-18" value="" style="shape=curlyBracket;whiteSpace=wrap;html=1;rounded=1;flipH=1;" vertex="1" parent="1">
          <mxGeometry x="580" y="140" width="20" height="140" as="geometry" />
        </mxCell>
        <mxCell id="yuPRgM2eAbtoOdmmoAb1-19" value="" style="shape=curlyBracket;whiteSpace=wrap;html=1;rounded=1;flipH=1;" vertex="1" parent="1">
          <mxGeometry x="580" y="280" width="20" height="180" as="geometry" />
        </mxCell>
        <mxCell id="yuPRgM2eAbtoOdmmoAb1-20" value="GNU/Linux" style="text;html=1;strokeColor=none;fillColor=none;align=center;verticalAlign=middle;whiteSpace=wrap;rounded=0;" vertex="1" parent="1">
          <mxGeometry x="90" y="285" width="60" height="30" as="geometry" />
        </mxCell>
        <mxCell id="yuPRgM2eAbtoOdmmoAb1-21" value="User Space" style="text;html=1;strokeColor=none;fillColor=none;align=center;verticalAlign=middle;whiteSpace=wrap;rounded=0;" vertex="1" parent="1">
          <mxGeometry x="600" y="195" width="60" height="30" as="geometry" />
        </mxCell>
        <mxCell id="yuPRgM2eAbtoOdmmoAb1-22" value="Kernel Space" style="text;html=1;strokeColor=none;fillColor=none;align=center;verticalAlign=middle;whiteSpace=wrap;rounded=0;" vertex="1" parent="1">
          <mxGeometry x="600" y="355" width="60" height="30" as="geometry" />
        </mxCell>
      </root>
    </mxGraphModel>
  </diagram>
</mxfile>
